<svg xmlns="http://www.w3.org/2000/svg" width="900" height="520" viewBox="0 0 900 520"><rect width="900" height="520" fill="white"/><text x="450" y="35" text-anchor="middle" font-family="Arial" font-size="20" font-weight="bold">Gross Amount and Total Cost (₹ lakhs)</text><g stroke="#333" fill="none"><line x1="90" y1="440" x2="840" y2="440"/><line x1="90" y1="70" x2="90" y2="440"/></g><g font-family="Arial" font-size="16" text-anchor="middle"><text x="180" y="475">2016–17</text><text x="360" y="475">2017–18</text><text x="540" y="475">2018–19</text><text x="720" y="475">2019–20</text><text x="135" y="120">7500</text><text x="105" y="180">6500</text><text x="135" y="210">6000</text><text x="105" y="270">5500</text><text x="135" y="300">5000</text><text x="105" y="360">4500</text><text x="135" y="390">4000</text><text x="105" y="430">3500</text></g><g stroke="#333"><rect x="155" y="265" width="45" height="175" fill="#ddd"/><rect x="200" y="240" width="45" height="200" fill="#aaa"/><rect x="335" y="215" width="45" height="225" fill="#ddd"/><rect x="380" y="190" width="45" height="250" fill="#aaa"/><rect x="515" y="165" width="45" height="275" fill="#ddd"/><rect x="560" y="125" width="45" height="315" fill="#aaa"/><rect x="695" y="110" width="45" height="330" fill="#ddd"/><rect x="740" y="70" width="45" height="370" fill="#aaa"/></g><g font-family="Arial" font-size="15"><rect x="650" y="35" width="18" height="18" fill="#ddd" stroke="#333"/><text x="675" y="50">Total cost</text><rect x="760" y="35" width="18" height="18" fill="#aaa" stroke="#333"/><text x="785" y="50">Gross amount</text></g></svg>